<svg xmlns="http://www.w3.org/2000/svg" width="185.263" height="185.263" viewBox="0 0 185.263 185.263">
  <g id="Union_1" data-name="Union 1" transform="translate(92.631) rotate(45)" fill="#707070">
    <path d="M 65.50019836425781 130.5003967285156 C 62.74324798583984 130.5003967285156 60.50029754638672 128.2570495605469 60.50029754638672 125.4995956420898 L 60.50029754638672 71.00009918212891 L 60.50029754638672 70.50009918212891 L 60.00029754638672 70.50009918212891 L 5.499898433685303 70.50009918212891 C 2.742948293685913 70.50009918212891 0.4999983608722687 68.25714874267578 0.4999983608722687 65.50019836425781 C 0.4999983608722687 62.74324798583984 2.742948293685913 60.50029754638672 5.499898433685303 60.50029754638672 L 60.00029754638672 60.50029754638672 L 60.50029754638672 60.50029754638672 L 60.50029754638672 60.00029754638672 L 60.50029754638672 5.499898433685303 C 60.50029754638672 2.742948293685913 62.74324798583984 0.4999983608722687 65.50019836425781 0.4999983608722687 C 68.25714874267578 0.4999983608722687 70.50009918212891 2.742948293685913 70.50009918212891 5.499898433685303 L 70.50009918212891 60.00029754638672 L 70.50009918212891 60.50029754638672 L 71.00009918212891 60.50029754638672 L 125.4995956420898 60.50029754638672 C 128.2570495605469 60.50029754638672 130.5003967285156 62.74324798583984 130.5003967285156 65.50019836425781 C 130.5003967285156 68.25714874267578 128.2570495605469 70.50009918212891 125.4995956420898 70.50009918212891 L 71.00009918212891 70.50009918212891 L 70.50009918212891 70.50009918212891 L 70.50009918212891 71.00009918212891 L 70.50009918212891 125.4995956420898 C 70.50009918212891 128.2570495605469 68.25714874267578 130.5003967285156 65.50019836425781 130.5003967285156 Z" stroke="none"/>
    <path d="M 65.50019836425781 130.0003967285156 C 67.98145294189453 130.0003967285156 70.00010681152344 127.9813461303711 70.00010681152344 125.4995956420898 L 70.00010681152344 71.00010681152344 L 70.00010681152344 70.00010681152344 L 71.00010681152344 70.00010681152344 L 125.4995956420898 70.00010681152344 C 127.9813461303711 70.00010681152344 130.0003967285156 67.98145294189453 130.0003967285156 65.50019836425781 C 130.0003967285156 63.01894378662109 127.9813461303711 61.00030899047852 125.4995956420898 61.00030899047852 L 71.00010681152344 61.00030899047852 L 70.00010681152344 61.00030899047852 L 70.00010681152344 60.00030899047852 L 70.00010681152344 5.499907493591309 C 70.00010681152344 3.01865291595459 67.98145294189453 0.9999983906745911 65.50019836425781 0.9999983906745911 C 63.01894378662109 0.9999983906745911 61.00030899047852 3.01865291595459 61.00030899047852 5.499907493591309 L 61.00030899047852 60.00030899047852 L 61.00030899047852 61.00030899047852 L 60.00030899047852 61.00030899047852 L 5.499907493591309 61.00030899047852 C 3.01865291595459 61.00030899047852 0.9999983906745911 63.01894378662109 0.9999983906745911 65.50019836425781 C 0.9999983906745911 67.98145294189453 3.01865291595459 70.00010681152344 5.499907493591309 70.00010681152344 L 60.00030899047852 70.00010681152344 L 61.00030899047852 70.00010681152344 L 61.00030899047852 71.00010681152344 L 61.00030899047852 125.4995956420898 C 61.00030899047852 127.9813461303711 63.01894378662109 130.0003967285156 65.50019836425781 130.0003967285156 M 65.50019836425781 131.0003967285156 C 62.46270751953125 131.0003967285156 60.00030899047852 128.5380096435547 60.00030899047852 125.4995956420898 L 60.00030899047852 71.00010681152344 L 5.499907493591309 71.00010681152344 C 2.462398290634155 71.00010681152344 -1.635742137295892e-06 68.53770446777344 -1.635742137295892e-06 65.50019836425781 C -1.635742137295892e-06 62.46270751953125 2.462398290634155 60.00030899047852 5.499907493591309 60.00030899047852 L 60.00030899047852 60.00030899047852 L 60.00030899047852 5.499907493591309 C 60.00030899047852 2.462398290634155 62.46270751953125 -1.635742137295892e-06 65.50019836425781 -1.635742137295892e-06 C 68.53770446777344 -1.635742137295892e-06 71.00010681152344 2.462398290634155 71.00010681152344 5.499907493591309 L 71.00010681152344 60.00030899047852 L 125.4995956420898 60.00030899047852 C 128.5380096435547 60.00030899047852 131.0003967285156 62.46270751953125 131.0003967285156 65.50019836425781 C 131.0003967285156 68.53770446777344 128.5380096435547 71.00010681152344 125.4995956420898 71.00010681152344 L 71.00010681152344 71.00010681152344 L 71.00010681152344 125.4995956420898 C 71.00010681152344 128.5380096435547 68.53770446777344 131.0003967285156 65.50019836425781 131.0003967285156 Z" stroke="none" fill="#707070"/>
  </g>
</svg>
